%TF.GenerationSoftware,Altium Limited,Altium Designer,20.0.13 (296)*%
G04 Layer_Color=8388736*
%FSLAX26Y26*%
%MOIN*%
%TF.FileFunction,Soldermask,Top*%
%TF.Part,Single*%
G01*
G75*
%TA.AperFunction,ComponentPad*%
%ADD27C,0.067055*%
%ADD28R,0.067055X0.067055*%
%ADD29O,0.076898X0.106425*%
%ADD30R,0.067055X0.067055*%
%ADD31R,0.008000X0.008000*%
%ADD32C,0.145795*%
%TA.AperFunction,ViaPad*%
%ADD33C,0.058000*%
%TA.AperFunction,SMDPad,CuDef*%
%ADD34O,0.031622X0.015874*%
%ADD35R,0.072961X0.106425*%
%ADD36R,0.063118X0.059181*%
%ADD37R,0.114299X0.059181*%
%ADD38R,0.065087X0.047370*%
%ADD39R,0.061150X0.053276*%
%ADD40R,0.055244X0.055244*%
%ADD41R,0.053276X0.061150*%
D27*
X1450000Y1300000D02*
D03*
X1050000D02*
D03*
X300000Y1450000D02*
D03*
D28*
X1450000Y1200000D02*
D03*
X1050000D02*
D03*
D29*
X100000Y3200000D02*
D03*
X200000D02*
D03*
X300000D02*
D03*
X1600000D02*
D03*
X1700000D02*
D03*
D30*
X400000Y1450000D02*
D03*
D31*
X1659842Y2715595D02*
D03*
Y207327D02*
D03*
X1040158Y542366D02*
D03*
X140157Y463386D02*
D03*
Y2971653D02*
D03*
X759842Y2636614D02*
D03*
D32*
X1350000Y3050634D02*
D03*
Y207327D02*
D03*
X450000Y128346D02*
D03*
Y2971653D02*
D03*
D33*
X730000Y1780000D02*
D03*
X1250000Y1758902D02*
D03*
X1090000Y1680000D02*
D03*
X1180000Y2080000D02*
D03*
X1480000Y1810000D02*
D03*
X1234000Y1540000D02*
D03*
X1319000Y1538000D02*
D03*
X583000Y2292000D02*
D03*
D34*
X1005118Y1652756D02*
D03*
Y1668504D02*
D03*
Y1684252D02*
D03*
Y1700000D02*
D03*
Y1715748D02*
D03*
Y1731496D02*
D03*
Y1747244D02*
D03*
X894882D02*
D03*
Y1731496D02*
D03*
Y1715748D02*
D03*
Y1700000D02*
D03*
Y1684252D02*
D03*
Y1668504D02*
D03*
Y1652756D02*
D03*
D35*
X950000Y1700000D02*
D03*
D36*
X1150000Y1868504D02*
D03*
Y1931496D02*
D03*
Y1618504D02*
D03*
Y1681496D02*
D03*
D37*
X750000Y1955118D02*
D03*
Y1844882D02*
D03*
D38*
X900000Y2767520D02*
D03*
Y2832480D02*
D03*
D39*
X1250000Y1684449D02*
D03*
Y1615551D02*
D03*
X1150000Y1215551D02*
D03*
Y1284449D02*
D03*
X1650000Y1215551D02*
D03*
Y1284449D02*
D03*
D40*
X391339Y1300000D02*
D03*
X308661D02*
D03*
Y1200000D02*
D03*
X391339D02*
D03*
X308661Y1100000D02*
D03*
X391339D02*
D03*
D41*
X515551Y1300000D02*
D03*
X584449D02*
D03*
X515551Y1200000D02*
D03*
X584449D02*
D03*
X515551Y1100000D02*
D03*
X584449D02*
D03*
%TF.MD5,2979989999a371412aaf0a5270c6afeb*%
M02*
