%TF.GenerationSoftware,Altium Limited,Altium Designer,20.0.13 (296)*%
G04 Layer_Color=128*
%FSLAX26Y26*%
%MOIN*%
%TF.FileFunction,Drillmap*%
%TF.Part,Single*%
G01*
G75*
%TA.AperFunction,NonConductor*%
%ADD51C,0.005000*%
D51*
X1432284Y1300000D02*
X1467716D01*
X1450000Y1282284D02*
Y1317716D01*
X1432284Y1200000D02*
X1467716D01*
X1450000Y1182284D02*
Y1217716D01*
X78347Y3200000D02*
X121653D01*
X100000Y3178347D02*
Y3221653D01*
X178346Y3200000D02*
X221654D01*
X200000Y3178347D02*
Y3221653D01*
X278346Y3200000D02*
X321654D01*
X300000Y3178347D02*
Y3221653D01*
X1578347Y3200000D02*
X1621653D01*
X1600000Y3178347D02*
Y3221653D01*
X1678347Y3200000D02*
X1721653D01*
X1700000Y3178347D02*
Y3221653D01*
X1032284Y1200000D02*
X1067716D01*
X1050000Y1182284D02*
Y1217716D01*
X1032284Y1300000D02*
X1067716D01*
X1050000Y1282284D02*
Y1317716D01*
X382284Y1450000D02*
X417716D01*
X400000Y1432284D02*
Y1467716D01*
X282284Y1450000D02*
X317716D01*
X300000Y1432284D02*
Y1467716D01*
X1589961Y2715595D02*
X1729724D01*
X1659842Y2645713D02*
Y2785477D01*
X1324016Y3050634D02*
X1375984D01*
X1350000Y3024650D02*
Y3076618D01*
X1324016Y207327D02*
X1375984D01*
X1350000Y181343D02*
Y233311D01*
X1612795Y207327D02*
X1706890D01*
X1659842Y160280D02*
Y254374D01*
X970276Y542366D02*
X1110039D01*
X1040158Y472485D02*
Y612248D01*
X70276Y463386D02*
X210039D01*
X140157Y393504D02*
Y533268D01*
X424016Y128346D02*
X475984D01*
X450000Y102362D02*
Y154331D01*
X424016Y2971653D02*
X475984D01*
X450000Y2945669D02*
Y2997638D01*
X93110Y2971653D02*
X187205D01*
X140157Y2924606D02*
Y3018701D01*
X689961Y2636614D02*
X829724D01*
X759842Y2566732D02*
Y2706496D01*
X716000Y1780000D02*
X744000D01*
X730000Y1766000D02*
Y1794000D01*
X1236000Y1758902D02*
X1264000D01*
X1250000Y1744902D02*
Y1772902D01*
X1076000Y1680000D02*
X1104000D01*
X1090000Y1666000D02*
Y1694000D01*
X1166000Y2080000D02*
X1194000D01*
X1180000Y2066000D02*
Y2094000D01*
X1466000Y1810000D02*
X1494000D01*
X1480000Y1796000D02*
Y1824000D01*
X1220000Y1540000D02*
X1248000D01*
X1234000Y1526000D02*
Y1554000D01*
X1305000Y1538000D02*
X1333000D01*
X1319000Y1524000D02*
Y1552000D01*
X569000Y2292000D02*
X597000D01*
X583000Y2278000D02*
Y2306000D01*
%TF.MD5,e01c3a755258728fd05d5e91ad9d234c*%
M02*
