%TF.GenerationSoftware,Altium Limited,Altium Designer,20.0.13 (296)*%
G04 Layer_Physical_Order=2*
G04 Layer_Color=16711680*
%FSLAX26Y26*%
%MOIN*%
%TF.FileFunction,Copper,L2,Bot,Signal*%
%TF.Part,Single*%
G01*
G75*
%TA.AperFunction,Conductor*%
%ADD18C,0.008000*%
%ADD19C,0.010000*%
%ADD20C,0.050000*%
%TA.AperFunction,ComponentPad*%
%ADD21C,0.059055*%
%ADD22R,0.059055X0.059055*%
%ADD23O,0.068898X0.098425*%
%ADD24R,0.059055X0.059055*%
%ADD25C,0.137795*%
%TA.AperFunction,ViaPad*%
%ADD26C,0.050000*%
D18*
X730000Y1720000D02*
X1250000Y1200000D01*
X730000Y1720000D02*
Y1780000D01*
X1250000Y1200000D02*
X1450000D01*
D19*
X1180000Y1828902D02*
Y2080000D01*
Y1828902D02*
X1250000Y1758902D01*
X1320000Y1539000D02*
Y1688902D01*
X1319000Y1538000D02*
X1320000Y1539000D01*
X1250000Y1758902D02*
X1320000Y1688902D01*
X1250000Y1758902D02*
Y1758902D01*
X1090000Y1680000D02*
X1193000D01*
X1234000Y1639000D01*
X686000Y2189000D02*
X1224000D01*
X1420000Y1993000D01*
X583000Y2292000D02*
X686000Y2189000D01*
X1420000Y1330000D02*
X1450000Y1300000D01*
X1420000Y1330000D02*
Y1993000D01*
X1234000Y1540000D02*
Y1639000D01*
D20*
X1350000Y207327D02*
Y900000D01*
X1271019Y2971653D02*
X1350000Y3050634D01*
X450000Y2971653D02*
X1271019D01*
X1530000Y1080000D02*
Y1780711D01*
X1480000Y1810000D02*
X1500711D01*
X1530000Y1780711D01*
X1350000Y900000D02*
X1530000Y1080000D01*
D21*
X1450000Y1300000D02*
D03*
X1050000D02*
D03*
X300000Y1450000D02*
D03*
D22*
X1450000Y1200000D02*
D03*
X1050000D02*
D03*
D23*
X100000Y3200000D02*
D03*
X200000D02*
D03*
X300000D02*
D03*
X1600000D02*
D03*
X1700000D02*
D03*
D24*
X400000Y1450000D02*
D03*
D25*
X1350000Y3050634D02*
D03*
Y207327D02*
D03*
X450000Y128346D02*
D03*
Y2971653D02*
D03*
D26*
X730000Y1780000D02*
D03*
X1250000Y1758902D02*
D03*
X1090000Y1680000D02*
D03*
X1180000Y2080000D02*
D03*
X1480000Y1810000D02*
D03*
X1234000Y1540000D02*
D03*
X1319000Y1538000D02*
D03*
X583000Y2292000D02*
D03*
%TF.MD5,dda73139a6f3954a1169133f6e4ab440*%
M02*
