%TF.GenerationSoftware,Altium Limited,Altium Designer,20.0.13 (296)*%
G04 Layer_Color=8421504*
%FSLAX26Y26*%
%MOIN*%
%TF.FileFunction,Paste,Top*%
%TF.Part,Single*%
G01*
G75*
%TA.AperFunction,SMDPad,CuDef*%
%ADD10O,0.023622X0.007874*%
%ADD11R,0.064961X0.098425*%
%ADD12R,0.055118X0.051181*%
%ADD13R,0.106299X0.051181*%
%ADD14R,0.057087X0.039370*%
%ADD15R,0.053150X0.045276*%
%ADD16R,0.047244X0.047244*%
%ADD17R,0.045276X0.053150*%
D10*
X1005118Y1652756D02*
D03*
Y1668504D02*
D03*
Y1684252D02*
D03*
Y1700000D02*
D03*
Y1715748D02*
D03*
Y1731496D02*
D03*
Y1747244D02*
D03*
X894882D02*
D03*
Y1731496D02*
D03*
Y1715748D02*
D03*
Y1700000D02*
D03*
Y1684252D02*
D03*
Y1668504D02*
D03*
Y1652756D02*
D03*
D11*
X950000Y1700000D02*
D03*
D12*
X1150000Y1868504D02*
D03*
Y1931496D02*
D03*
Y1618504D02*
D03*
Y1681496D02*
D03*
D13*
X750000Y1955118D02*
D03*
Y1844882D02*
D03*
D14*
X900000Y2767520D02*
D03*
Y2832480D02*
D03*
D15*
X1250000Y1684449D02*
D03*
Y1615551D02*
D03*
X1150000Y1215551D02*
D03*
Y1284449D02*
D03*
X1650000Y1215551D02*
D03*
Y1284449D02*
D03*
D16*
X391339Y1300000D02*
D03*
X308661D02*
D03*
Y1200000D02*
D03*
X391339D02*
D03*
X308661Y1100000D02*
D03*
X391339D02*
D03*
D17*
X515551Y1300000D02*
D03*
X584449D02*
D03*
X515551Y1200000D02*
D03*
X584449D02*
D03*
X515551Y1100000D02*
D03*
X584449D02*
D03*
%TF.MD5,e822e7d90f34013920107b69aa761622*%
M02*
