%TF.GenerationSoftware,Altium Limited,Altium Designer,20.0.13 (296)*%
G04 Layer_Color=16711935*
%FSLAX26Y26*%
%MOIN*%
%TF.FileFunction,Soldermask,Bot*%
%TF.Part,Single*%
G01*
G75*
%TA.AperFunction,ComponentPad*%
%ADD27C,0.067055*%
%ADD28R,0.067055X0.067055*%
%ADD29O,0.076898X0.106425*%
%ADD30R,0.067055X0.067055*%
%ADD31R,0.008000X0.008000*%
%ADD32C,0.145795*%
%TA.AperFunction,ViaPad*%
%ADD33C,0.058000*%
D27*
X1450000Y1300000D02*
D03*
X1050000D02*
D03*
X300000Y1450000D02*
D03*
D28*
X1450000Y1200000D02*
D03*
X1050000D02*
D03*
D29*
X100000Y3200000D02*
D03*
X200000D02*
D03*
X300000D02*
D03*
X1600000D02*
D03*
X1700000D02*
D03*
D30*
X400000Y1450000D02*
D03*
D31*
X1659842Y2715595D02*
D03*
Y207327D02*
D03*
X1040158Y542366D02*
D03*
X140157Y463386D02*
D03*
Y2971653D02*
D03*
X759842Y2636614D02*
D03*
D32*
X1350000Y3050634D02*
D03*
Y207327D02*
D03*
X450000Y128346D02*
D03*
Y2971653D02*
D03*
D33*
X730000Y1780000D02*
D03*
X1250000Y1758902D02*
D03*
X1090000Y1680000D02*
D03*
X1180000Y2080000D02*
D03*
X1480000Y1810000D02*
D03*
X1234000Y1540000D02*
D03*
X1319000Y1538000D02*
D03*
X583000Y2292000D02*
D03*
%TF.MD5,09abdec768191765d39453f146010f14*%
M02*
