%TF.GenerationSoftware,Altium Limited,Altium Designer,20.0.13 (296)*%
G04 Layer_Physical_Order=1*
G04 Layer_Color=255*
%FSLAX26Y26*%
%MOIN*%
%TF.FileFunction,Copper,L1,Top,Signal*%
%TF.Part,Single*%
G01*
G75*
%TA.AperFunction,SMDPad,CuDef*%
%ADD10O,0.023622X0.007874*%
%ADD11R,0.064961X0.098425*%
%ADD12R,0.055118X0.051181*%
%ADD13R,0.106299X0.051181*%
%ADD14R,0.057087X0.039370*%
%ADD15R,0.053150X0.045276*%
%ADD16R,0.047244X0.047244*%
%ADD17R,0.045276X0.053150*%
%TA.AperFunction,Conductor*%
%ADD18C,0.008000*%
%ADD19C,0.010000*%
%ADD20C,0.050000*%
%TA.AperFunction,ComponentPad*%
%ADD21C,0.059055*%
%ADD22R,0.059055X0.059055*%
%ADD23O,0.068898X0.098425*%
%ADD24R,0.059055X0.059055*%
%ADD25C,0.137795*%
%TA.AperFunction,ViaPad*%
%ADD26C,0.050000*%
G36*
X1800000D02*
X0D01*
Y3400000D01*
X1800000D01*
Y0D01*
D02*
G37*
%LPC*%
G36*
X1700000Y3259596D02*
X1688397Y3258068D01*
X1677584Y3253590D01*
X1672300Y3249535D01*
X1700000Y3221835D01*
X1727700Y3249535D01*
X1722416Y3253590D01*
X1711603Y3258068D01*
X1700000Y3259596D01*
D02*
G37*
G36*
X200000D02*
X188397Y3258068D01*
X177584Y3253590D01*
X172300Y3249535D01*
X200000Y3221835D01*
X227700Y3249535D01*
X222416Y3253590D01*
X211603Y3258068D01*
X200000Y3259596D01*
D02*
G37*
G36*
X1665229Y3242464D02*
X1661174Y3237180D01*
X1656695Y3226367D01*
X1655168Y3214764D01*
Y3185236D01*
X1656695Y3173633D01*
X1661174Y3162820D01*
X1665229Y3157536D01*
X1696465Y3188772D01*
X1700000Y3185236D01*
X1703535Y3188772D01*
X1734771Y3157536D01*
X1738826Y3162820D01*
X1743305Y3173633D01*
X1744832Y3185236D01*
Y3214764D01*
X1743305Y3226367D01*
X1738826Y3237180D01*
X1734771Y3242464D01*
X1703535Y3211228D01*
X1700000Y3214764D01*
X1696465Y3211228D01*
X1665229Y3242464D01*
D02*
G37*
G36*
X165229D02*
X161174Y3237180D01*
X156695Y3226367D01*
X155168Y3214764D01*
Y3185236D01*
X156695Y3173633D01*
X161174Y3162820D01*
X165229Y3157536D01*
X196464Y3188772D01*
X200000Y3185236D01*
X203536Y3188772D01*
X234771Y3157536D01*
X238826Y3162820D01*
X243305Y3173633D01*
X244832Y3185236D01*
Y3214764D01*
X243305Y3226367D01*
X238826Y3237180D01*
X234771Y3242464D01*
X203536Y3211228D01*
X200000Y3214764D01*
X196464Y3211228D01*
X165229Y3242464D01*
D02*
G37*
G36*
X1700000Y3178165D02*
X1672300Y3150465D01*
X1677584Y3146410D01*
X1688397Y3141932D01*
X1700000Y3140404D01*
X1711603Y3141932D01*
X1722416Y3146410D01*
X1727700Y3150465D01*
X1700000Y3178165D01*
D02*
G37*
G36*
X200000D02*
X172300Y3150465D01*
X177584Y3146410D01*
X188397Y3141932D01*
X200000Y3140404D01*
X211603Y3141932D01*
X222416Y3146410D01*
X227700Y3150465D01*
X200000Y3178165D01*
D02*
G37*
G36*
X1350000Y3129914D02*
X1334533Y3128390D01*
X1319661Y3123879D01*
X1305955Y3116552D01*
X1293941Y3106693D01*
X1284082Y3094679D01*
X1276755Y3080973D01*
X1272244Y3066101D01*
X1270721Y3050634D01*
X1272244Y3035168D01*
X1276755Y3020295D01*
X1284082Y3006589D01*
X1293941Y2994575D01*
X1305955Y2984716D01*
X1319661Y2977390D01*
X1334533Y2972878D01*
X1350000Y2971355D01*
X1365467Y2972878D01*
X1380339Y2977390D01*
X1394045Y2984716D01*
X1406059Y2994575D01*
X1415918Y3006589D01*
X1423245Y3020295D01*
X1427756Y3035168D01*
X1429279Y3050634D01*
X1427756Y3066101D01*
X1423245Y3080973D01*
X1415918Y3094679D01*
X1406059Y3106693D01*
X1394045Y3116552D01*
X1380339Y3123879D01*
X1365467Y3128390D01*
X1350000Y3129914D01*
D02*
G37*
G36*
X140157Y3029193D02*
X125265Y3027232D01*
X111388Y3021484D01*
X99471Y3012340D01*
X90327Y3000423D01*
X84579Y2986546D01*
X82618Y2971653D01*
X84579Y2956761D01*
X90327Y2942884D01*
X99471Y2930967D01*
X111388Y2921823D01*
X125265Y2916075D01*
X140157Y2914114D01*
X155050Y2916075D01*
X168927Y2921823D01*
X180844Y2930967D01*
X189988Y2942884D01*
X195736Y2956761D01*
X197697Y2971653D01*
X195736Y2986546D01*
X189988Y3000423D01*
X180844Y3012340D01*
X168927Y3021484D01*
X155050Y3027232D01*
X140157Y3029193D01*
D02*
G37*
G36*
X450000Y3050933D02*
X434533Y3049410D01*
X419661Y3044898D01*
X405955Y3037572D01*
X393941Y3027713D01*
X384082Y3015699D01*
X376755Y3001992D01*
X372244Y2987120D01*
X370721Y2971653D01*
X372244Y2956187D01*
X376755Y2941315D01*
X384082Y2927608D01*
X393941Y2915595D01*
X405955Y2905735D01*
X419661Y2898409D01*
X434533Y2893897D01*
X450000Y2892374D01*
X465467Y2893897D01*
X480339Y2898409D01*
X494045Y2905735D01*
X506059Y2915595D01*
X515918Y2927608D01*
X523245Y2941315D01*
X527756Y2956187D01*
X529279Y2971653D01*
X527756Y2987120D01*
X523245Y3001992D01*
X515918Y3015699D01*
X506059Y3027713D01*
X494045Y3037572D01*
X480339Y3044898D01*
X465467Y3049410D01*
X450000Y3050933D01*
D02*
G37*
G36*
X938543Y2862165D02*
X905000D01*
Y2837481D01*
X938543D01*
Y2862165D01*
D02*
G37*
G36*
X895000D02*
X861457D01*
Y2837481D01*
X895000D01*
Y2862165D01*
D02*
G37*
G36*
X938543Y2827481D02*
X905000D01*
Y2802795D01*
X938543D01*
Y2827481D01*
D02*
G37*
G36*
X895000D02*
X861457D01*
Y2802795D01*
X895000D01*
Y2827481D01*
D02*
G37*
G36*
X1659842Y2795863D02*
X1644183Y2794321D01*
X1629125Y2789753D01*
X1615248Y2782336D01*
X1603084Y2772353D01*
X1593102Y2760189D01*
X1585684Y2746312D01*
X1581116Y2731254D01*
X1579574Y2715595D01*
X1581116Y2699935D01*
X1585684Y2684877D01*
X1593102Y2671000D01*
X1603084Y2658836D01*
X1615248Y2648854D01*
X1629125Y2641436D01*
X1644183Y2636869D01*
X1659842Y2635326D01*
X1675502Y2636869D01*
X1690560Y2641436D01*
X1704437Y2648854D01*
X1716601Y2658836D01*
X1726583Y2671000D01*
X1734001Y2684877D01*
X1738569Y2699935D01*
X1740111Y2715595D01*
X1738569Y2731254D01*
X1734001Y2746312D01*
X1726583Y2760189D01*
X1716601Y2772353D01*
X1704437Y2782336D01*
X1690560Y2789753D01*
X1675502Y2794321D01*
X1659842Y2795863D01*
D02*
G37*
G36*
X759842Y2716883D02*
X744183Y2715340D01*
X729125Y2710773D01*
X715248Y2703355D01*
X703084Y2693372D01*
X693102Y2681209D01*
X685684Y2667332D01*
X681116Y2652274D01*
X679574Y2636614D01*
X681116Y2620955D01*
X685684Y2605897D01*
X693102Y2592019D01*
X703084Y2579856D01*
X715248Y2569874D01*
X729125Y2562456D01*
X744183Y2557888D01*
X759842Y2556346D01*
X775502Y2557888D01*
X790560Y2562456D01*
X804437Y2569874D01*
X816601Y2579856D01*
X826583Y2592019D01*
X834001Y2605897D01*
X838569Y2620955D01*
X840111Y2636614D01*
X838569Y2652274D01*
X834001Y2667332D01*
X826583Y2681209D01*
X816601Y2693372D01*
X804437Y2703355D01*
X790560Y2710773D01*
X775502Y2715340D01*
X759842Y2716883D01*
D02*
G37*
G36*
X300000Y3259596D02*
X288397Y3258068D01*
X277584Y3253590D01*
X268299Y3246465D01*
X261174Y3237180D01*
X256695Y3226367D01*
X255168Y3214764D01*
Y3185236D01*
X256695Y3173633D01*
X261174Y3162820D01*
X268299Y3153535D01*
X277584Y3146410D01*
X288397Y3141932D01*
X300000Y3140404D01*
X311603Y3141932D01*
X322416Y3146410D01*
X331701Y3153535D01*
X332025Y3153556D01*
X336804Y3148777D01*
Y2536000D01*
X337580Y2532098D01*
X339790Y2528790D01*
X555251Y2313330D01*
X552428Y2309651D01*
X548901Y2301137D01*
X547698Y2292000D01*
X548901Y2282863D01*
X552428Y2274349D01*
X558038Y2267038D01*
X565349Y2261428D01*
X573863Y2257901D01*
X583000Y2256698D01*
X592137Y2257901D01*
X600651Y2261428D01*
X607962Y2267038D01*
X613572Y2274349D01*
X617099Y2282863D01*
X618302Y2292000D01*
X617099Y2301137D01*
X613572Y2309651D01*
X607962Y2316962D01*
X600651Y2322572D01*
X592137Y2326099D01*
X583000Y2327302D01*
X573863Y2326099D01*
X572065Y2325354D01*
X357196Y2540223D01*
Y3153000D01*
X356420Y3156902D01*
X354210Y3160210D01*
X342567Y3171852D01*
X343305Y3173633D01*
X344832Y3185236D01*
Y3214764D01*
X343305Y3226367D01*
X338826Y3237180D01*
X331701Y3246465D01*
X322416Y3253590D01*
X311603Y3258068D01*
X300000Y3259596D01*
D02*
G37*
G36*
X933543Y2792205D02*
X866457D01*
Y2742835D01*
X933543D01*
Y2757324D01*
X968257D01*
X999804Y2725777D01*
Y2230000D01*
X1000580Y2226098D01*
X1002790Y2222790D01*
X1144801Y2080780D01*
X1144698Y2080000D01*
X1145901Y2070863D01*
X1149428Y2062349D01*
X1155038Y2055038D01*
X1162349Y2049428D01*
X1170863Y2045901D01*
X1180000Y2044698D01*
X1189137Y2045901D01*
X1197651Y2049428D01*
X1204962Y2055038D01*
X1210572Y2062349D01*
X1214099Y2070863D01*
X1215302Y2080000D01*
X1214099Y2089137D01*
X1210572Y2097651D01*
X1204962Y2104962D01*
X1197651Y2110572D01*
X1189137Y2114099D01*
X1180000Y2115302D01*
X1170863Y2114099D01*
X1162349Y2110572D01*
X1155038Y2104962D01*
X1154923Y2104813D01*
X1149934Y2104486D01*
X1020196Y2234223D01*
Y2730000D01*
X1019420Y2733902D01*
X1017210Y2737210D01*
X979690Y2774729D01*
X976382Y2776939D01*
X972480Y2777716D01*
X933543D01*
Y2792205D01*
D02*
G37*
G36*
X813150Y1990709D02*
X755000D01*
Y1960118D01*
X813150D01*
Y1990709D01*
D02*
G37*
G36*
X745000D02*
X686850D01*
Y1960118D01*
X745000D01*
Y1990709D01*
D02*
G37*
G36*
X1187559Y1967087D02*
X1155000D01*
Y1936496D01*
X1187559D01*
Y1967087D01*
D02*
G37*
G36*
X1145000D02*
X1112441D01*
Y1936496D01*
X1145000D01*
Y1967087D01*
D02*
G37*
G36*
X813150Y1950118D02*
X755000D01*
Y1919528D01*
X813150D01*
Y1950118D01*
D02*
G37*
G36*
X745000D02*
X686850D01*
Y1919528D01*
X745000D01*
Y1950118D01*
D02*
G37*
G36*
X1600000Y3259596D02*
X1588397Y3258068D01*
X1577584Y3253590D01*
X1568299Y3246465D01*
X1561174Y3237180D01*
X1556695Y3226367D01*
X1555168Y3214764D01*
Y3185236D01*
X1556695Y3173633D01*
X1561174Y3162820D01*
X1568299Y3153535D01*
X1569741Y3152428D01*
Y2955534D01*
X1376604Y2762396D01*
X1371795Y2756130D01*
X1368772Y2748832D01*
X1367741Y2741000D01*
Y1993534D01*
X1320356Y1946148D01*
X1272970Y1898763D01*
X1210196D01*
Y1900000D01*
X1209420Y1903902D01*
X1207210Y1907210D01*
X1203902Y1909420D01*
X1200000Y1910196D01*
X1187559D01*
Y1926496D01*
X1112441D01*
Y1910196D01*
X960196D01*
X956294Y1909420D01*
X955846Y1909121D01*
X953902Y1910420D01*
X950000Y1911196D01*
X675000D01*
X671098Y1910420D01*
X667790Y1908210D01*
X665580Y1904902D01*
X664804Y1901000D01*
Y1875141D01*
X496652D01*
X316259Y2055534D01*
Y2982000D01*
X315228Y2989832D01*
X312205Y2997130D01*
X307396Y3003396D01*
X307396Y3003397D01*
X223396Y3087396D01*
X217130Y3092205D01*
X209832Y3095228D01*
X202000Y3096259D01*
X141823D01*
X130259Y3107823D01*
Y3152428D01*
X131701Y3153535D01*
X138826Y3162820D01*
X143305Y3173633D01*
X144832Y3185236D01*
Y3214764D01*
X143305Y3226367D01*
X138826Y3237180D01*
X131701Y3246465D01*
X122416Y3253590D01*
X111603Y3258068D01*
X100000Y3259596D01*
X88397Y3258068D01*
X77584Y3253590D01*
X68299Y3246465D01*
X61174Y3237180D01*
X56695Y3226367D01*
X55168Y3214764D01*
Y3185236D01*
X56695Y3173633D01*
X61174Y3162820D01*
X68299Y3153535D01*
X69741Y3152428D01*
Y3095289D01*
X70772Y3087458D01*
X73795Y3080160D01*
X78604Y3073893D01*
X107893Y3044604D01*
X107893Y3044604D01*
X114160Y3039795D01*
X121458Y3036772D01*
X129289Y3035741D01*
X129290Y3035741D01*
X189466D01*
X255741Y2969466D01*
Y2043000D01*
X256772Y2035168D01*
X259795Y2027870D01*
X264604Y2021604D01*
X462722Y1823486D01*
X468989Y1818677D01*
X476286Y1815654D01*
X484118Y1814623D01*
X664804D01*
Y1732781D01*
X421550Y1489527D01*
X360473D01*
Y1410473D01*
X439527D01*
Y1481550D01*
X669575Y1711598D01*
X671087Y1710585D01*
X671093Y1710583D01*
X671098Y1710580D01*
X673048Y1710192D01*
X674988Y1709804D01*
X785400Y1709678D01*
X787311Y1705057D01*
X647511Y1565258D01*
X645522Y1562281D01*
X644824Y1558769D01*
Y1373352D01*
X603223Y1331751D01*
X603087D01*
X602200Y1331575D01*
X556811D01*
Y1268425D01*
X612087D01*
Y1315134D01*
X613512Y1316086D01*
X653204Y1355778D01*
X657824Y1353865D01*
Y1286352D01*
X603223Y1231751D01*
X603087D01*
X602200Y1231575D01*
X556811D01*
Y1168425D01*
X612087D01*
Y1215134D01*
X613512Y1216086D01*
X666204Y1268778D01*
X670824Y1266865D01*
Y1199352D01*
X603223Y1131751D01*
X603087D01*
X602200Y1131575D01*
X556811D01*
Y1068425D01*
X612087D01*
Y1115134D01*
X613512Y1116086D01*
X686489Y1189063D01*
X688478Y1192040D01*
X689176Y1195551D01*
Y1544199D01*
X820053Y1675076D01*
X841478D01*
X843391Y1670456D01*
X842790Y1669856D01*
X840580Y1666548D01*
X839804Y1662646D01*
Y1477000D01*
X840580Y1473098D01*
X842790Y1469790D01*
X1010404Y1302177D01*
X1010417Y1302168D01*
X1010131Y1300000D01*
X1011490Y1289681D01*
X1015473Y1280066D01*
X1021809Y1271809D01*
X1030066Y1265473D01*
X1039681Y1261490D01*
X1050000Y1260131D01*
X1060319Y1261490D01*
X1069934Y1265473D01*
X1078191Y1271809D01*
X1084527Y1280066D01*
X1088510Y1289681D01*
X1089869Y1300000D01*
X1088510Y1310319D01*
X1084527Y1319934D01*
X1078191Y1328191D01*
X1069934Y1334527D01*
X1060319Y1338510D01*
X1050000Y1339869D01*
X1039681Y1338510D01*
X1030066Y1334527D01*
X1021809Y1328191D01*
X1020391Y1326344D01*
X1015402Y1326017D01*
X860196Y1481223D01*
Y1658308D01*
X874413D01*
X878006Y1653308D01*
X877896Y1652756D01*
X878589Y1649269D01*
X880565Y1646313D01*
X883521Y1644337D01*
X887008Y1643644D01*
X902756D01*
X907520Y1640787D01*
Y1640787D01*
X945000D01*
Y1700000D01*
X955000D01*
Y1640787D01*
X992480D01*
Y1640787D01*
X997244Y1643644D01*
X1004795D01*
X1005118Y1643580D01*
X1040443D01*
X1085824Y1598199D01*
Y1578000D01*
X1086522Y1574488D01*
X1088511Y1571511D01*
X1366511Y1293511D01*
X1369488Y1291522D01*
X1373000Y1290824D01*
X1411340D01*
X1411490Y1289681D01*
X1415473Y1280066D01*
X1421809Y1271809D01*
X1430066Y1265473D01*
X1439681Y1261490D01*
X1450000Y1260131D01*
X1460319Y1261490D01*
X1469934Y1265473D01*
X1478191Y1271809D01*
X1484527Y1280066D01*
X1488510Y1289681D01*
X1489869Y1300000D01*
X1488510Y1310319D01*
X1484527Y1319934D01*
X1478191Y1328191D01*
X1469934Y1334527D01*
X1460319Y1338510D01*
X1450000Y1339869D01*
X1439681Y1338510D01*
X1430066Y1334527D01*
X1421809Y1328191D01*
X1415473Y1319934D01*
X1411490Y1310319D01*
X1411340Y1309176D01*
X1376801D01*
X1104176Y1581801D01*
Y1602000D01*
X1103478Y1605512D01*
X1101489Y1608489D01*
X1095793Y1614185D01*
X1097706Y1618804D01*
X1117441D01*
Y1587914D01*
X1182559D01*
Y1645906D01*
X1187559D01*
Y1676496D01*
X1150000D01*
Y1686496D01*
X1187559D01*
Y1707363D01*
X1208657D01*
X1213425Y1703214D01*
Y1689449D01*
X1245000D01*
Y1717087D01*
X1229137D01*
X1227224Y1721706D01*
X1233408Y1727891D01*
X1240863Y1724803D01*
X1250000Y1723600D01*
X1259137Y1724803D01*
X1267651Y1728329D01*
X1274962Y1733939D01*
X1280572Y1741251D01*
X1284099Y1749765D01*
X1285302Y1758902D01*
X1284099Y1768039D01*
X1280572Y1776553D01*
X1274962Y1783864D01*
X1267651Y1789474D01*
X1259137Y1793001D01*
X1250000Y1794204D01*
X1240863Y1793001D01*
X1232349Y1789474D01*
X1225038Y1783864D01*
X1219428Y1776553D01*
X1215901Y1768039D01*
X1215196Y1762684D01*
X1210196Y1763012D01*
Y1838245D01*
X1285504D01*
X1293336Y1839276D01*
X1300633Y1842299D01*
X1306900Y1847108D01*
X1341752Y1881959D01*
X1435107Y1788604D01*
X1435108Y1788604D01*
X1441374Y1783795D01*
X1448672Y1780772D01*
X1456504Y1779741D01*
X1461940D01*
X1462349Y1779428D01*
X1470863Y1775901D01*
X1480000Y1774698D01*
X1489137Y1775901D01*
X1497651Y1779428D01*
X1504962Y1785038D01*
X1510572Y1792349D01*
X1514099Y1800863D01*
X1515302Y1810000D01*
X1514099Y1819137D01*
X1510572Y1827651D01*
X1504962Y1834962D01*
X1497651Y1840572D01*
X1489137Y1844099D01*
X1480000Y1845302D01*
X1470863Y1844099D01*
X1466857Y1842440D01*
X1384545Y1924752D01*
X1419396Y1959604D01*
X1424205Y1965870D01*
X1427228Y1973168D01*
X1428259Y1981000D01*
Y2728466D01*
X1621396Y2921603D01*
X1621396Y2921604D01*
X1626205Y2927870D01*
X1629228Y2935168D01*
X1630259Y2943000D01*
Y3152428D01*
X1631701Y3153535D01*
X1638826Y3162820D01*
X1643305Y3173633D01*
X1644832Y3185236D01*
Y3214764D01*
X1643305Y3226367D01*
X1638826Y3237180D01*
X1631701Y3246465D01*
X1622416Y3253590D01*
X1611603Y3258068D01*
X1600000Y3259596D01*
D02*
G37*
G36*
X1286575Y1717087D02*
X1255000D01*
Y1689449D01*
X1286575D01*
Y1717087D01*
D02*
G37*
G36*
Y1679449D02*
X1255000D01*
Y1651811D01*
X1286575D01*
Y1679449D01*
D02*
G37*
G36*
X1245000D02*
X1213425D01*
Y1651811D01*
X1245000D01*
Y1679449D01*
D02*
G37*
G36*
X1281575Y1643189D02*
X1218425D01*
Y1587913D01*
X1239804D01*
Y1578330D01*
X1236045Y1575033D01*
X1234000Y1575302D01*
X1224863Y1574099D01*
X1216349Y1570572D01*
X1209038Y1564962D01*
X1203428Y1557651D01*
X1199901Y1549137D01*
X1198698Y1540000D01*
X1199901Y1530863D01*
X1203428Y1522349D01*
X1209038Y1515038D01*
X1216349Y1509428D01*
X1224863Y1505901D01*
X1234000Y1504698D01*
X1243137Y1505901D01*
X1251651Y1509428D01*
X1258962Y1515038D01*
X1264572Y1522349D01*
X1268099Y1530863D01*
X1269302Y1540000D01*
X1268099Y1549137D01*
X1264572Y1557651D01*
X1260196Y1563355D01*
Y1587913D01*
X1281575D01*
Y1643189D01*
D02*
G37*
G36*
X543189Y1331575D02*
X487913D01*
Y1310196D01*
X419961D01*
Y1328622D01*
X362717D01*
Y1271378D01*
X419961D01*
Y1289804D01*
X487913D01*
Y1268425D01*
X543189D01*
Y1331575D01*
D02*
G37*
G36*
X1686575Y1317087D02*
X1655000D01*
Y1289449D01*
X1686575D01*
Y1317087D01*
D02*
G37*
G36*
X1645000D02*
X1613425D01*
Y1289449D01*
X1645000D01*
Y1317087D01*
D02*
G37*
G36*
X1186575D02*
X1155000D01*
Y1289449D01*
X1186575D01*
Y1317087D01*
D02*
G37*
G36*
X1145000D02*
X1113425D01*
Y1289449D01*
X1145000D01*
Y1317087D01*
D02*
G37*
G36*
X1686575Y1279449D02*
X1655000D01*
Y1251811D01*
X1686575D01*
Y1279449D01*
D02*
G37*
G36*
X1645000D02*
X1613425D01*
Y1251811D01*
X1645000D01*
Y1279449D01*
D02*
G37*
G36*
X1186575D02*
X1155000D01*
Y1251811D01*
X1186575D01*
Y1279449D01*
D02*
G37*
G36*
X1145000D02*
X1113425D01*
Y1251811D01*
X1145000D01*
Y1279449D01*
D02*
G37*
G36*
X1181575Y1243189D02*
X1118425D01*
Y1210196D01*
X1089527D01*
Y1239527D01*
X1010472D01*
Y1160473D01*
X1089527D01*
Y1189804D01*
X1118425D01*
Y1187913D01*
X1181575D01*
Y1243189D01*
D02*
G37*
G36*
X543189Y1231575D02*
X487913D01*
Y1210196D01*
X419961D01*
Y1228622D01*
X362717D01*
Y1171378D01*
X419961D01*
Y1189804D01*
X487913D01*
Y1168425D01*
X543189D01*
Y1231575D01*
D02*
G37*
G36*
X1319000Y1573302D02*
X1309863Y1572099D01*
X1301349Y1568572D01*
X1294038Y1562962D01*
X1288428Y1555651D01*
X1284901Y1547137D01*
X1283698Y1538000D01*
X1284901Y1528863D01*
X1288428Y1520349D01*
X1294038Y1513038D01*
X1301349Y1507428D01*
X1309863Y1503901D01*
X1319000Y1502698D01*
X1328137Y1503901D01*
X1335592Y1506989D01*
X1537804Y1304777D01*
Y1262000D01*
X1538580Y1258098D01*
X1540790Y1254790D01*
X1584790Y1210790D01*
X1588098Y1208580D01*
X1592000Y1207804D01*
X1618425D01*
Y1187913D01*
X1681575D01*
Y1243189D01*
X1618425D01*
Y1228196D01*
X1596223D01*
X1558196Y1266223D01*
Y1309000D01*
X1557420Y1312902D01*
X1555210Y1316210D01*
X1350011Y1521408D01*
X1353099Y1528863D01*
X1354302Y1538000D01*
X1353099Y1547137D01*
X1349572Y1555651D01*
X1343962Y1562962D01*
X1336651Y1568572D01*
X1328137Y1572099D01*
X1319000Y1573302D01*
D02*
G37*
G36*
X1489527Y1239527D02*
X1410473D01*
Y1160473D01*
X1489527D01*
Y1239527D01*
D02*
G37*
G36*
X543189Y1131575D02*
X487913D01*
Y1110196D01*
X419961D01*
Y1128622D01*
X362717D01*
Y1071378D01*
X419961D01*
Y1089804D01*
X487913D01*
Y1068425D01*
X543189D01*
Y1131575D01*
D02*
G37*
G36*
X300000Y1489869D02*
X289681Y1488510D01*
X280066Y1484527D01*
X271809Y1478191D01*
X265473Y1469934D01*
X261490Y1460319D01*
X260131Y1450000D01*
X261490Y1439681D01*
X265473Y1430066D01*
X271809Y1421809D01*
X280066Y1415473D01*
X289681Y1411490D01*
X298466Y1410333D01*
Y1328622D01*
X280039D01*
Y1271378D01*
X298466D01*
Y1228622D01*
X280039D01*
Y1171378D01*
X298466D01*
Y1128622D01*
X280039D01*
Y1071378D01*
X337283D01*
Y1128622D01*
X318857D01*
Y1171378D01*
X337283D01*
Y1228622D01*
X318857D01*
Y1271378D01*
X337283D01*
Y1328622D01*
X318857D01*
Y1415027D01*
X319934Y1415473D01*
X328191Y1421809D01*
X334527Y1430066D01*
X338510Y1439681D01*
X339869Y1450000D01*
X338510Y1460319D01*
X334527Y1469934D01*
X328191Y1478191D01*
X319934Y1484527D01*
X310319Y1488510D01*
X300000Y1489869D01*
D02*
G37*
G36*
X1040158Y622635D02*
X1024498Y621092D01*
X1009440Y616525D01*
X995563Y609107D01*
X983399Y599125D01*
X973417Y586961D01*
X965999Y573084D01*
X961431Y558026D01*
X959889Y542366D01*
X961431Y526707D01*
X965999Y511649D01*
X973417Y497772D01*
X983399Y485608D01*
X995563Y475626D01*
X1009440Y468208D01*
X1024498Y463640D01*
X1040158Y462098D01*
X1055817Y463640D01*
X1070875Y468208D01*
X1084752Y475626D01*
X1096916Y485608D01*
X1106898Y497772D01*
X1114316Y511649D01*
X1118884Y526707D01*
X1120426Y542366D01*
X1118884Y558026D01*
X1114316Y573084D01*
X1106898Y586961D01*
X1096916Y599125D01*
X1084752Y609107D01*
X1070875Y616525D01*
X1055817Y621092D01*
X1040158Y622635D01*
D02*
G37*
G36*
X140157Y543654D02*
X124498Y542112D01*
X109440Y537544D01*
X95563Y530126D01*
X83399Y520144D01*
X73417Y507981D01*
X65999Y494103D01*
X61431Y479045D01*
X59889Y463386D01*
X61431Y447726D01*
X65999Y432668D01*
X73417Y418791D01*
X83399Y406627D01*
X95563Y396645D01*
X109440Y389228D01*
X124498Y384660D01*
X140157Y383117D01*
X155817Y384660D01*
X170875Y389228D01*
X184752Y396645D01*
X196916Y406627D01*
X206898Y418791D01*
X214316Y432668D01*
X218884Y447726D01*
X220426Y463386D01*
X218884Y479045D01*
X214316Y494103D01*
X206898Y507981D01*
X196916Y520144D01*
X184752Y530126D01*
X170875Y537544D01*
X155817Y542112D01*
X140157Y543654D01*
D02*
G37*
G36*
X1659842Y264867D02*
X1644950Y262906D01*
X1631073Y257158D01*
X1619156Y248014D01*
X1610012Y236097D01*
X1604264Y222219D01*
X1602303Y207327D01*
X1604264Y192435D01*
X1610012Y178557D01*
X1619156Y166641D01*
X1631073Y157496D01*
X1644950Y151748D01*
X1659842Y149788D01*
X1674735Y151748D01*
X1688612Y157496D01*
X1700529Y166641D01*
X1709673Y178557D01*
X1715421Y192435D01*
X1717382Y207327D01*
X1715421Y222219D01*
X1709673Y236097D01*
X1700529Y248014D01*
X1688612Y257158D01*
X1674735Y262906D01*
X1659842Y264867D01*
D02*
G37*
G36*
X450000Y207626D02*
X434533Y206103D01*
X419661Y201591D01*
X405955Y194265D01*
X397825Y187593D01*
X450000Y135417D01*
X502175Y187593D01*
X494045Y194265D01*
X480339Y201591D01*
X465467Y206103D01*
X450000Y207626D01*
D02*
G37*
G36*
X1350000Y286606D02*
X1334533Y285083D01*
X1319661Y280572D01*
X1305955Y273245D01*
X1293941Y263386D01*
X1284082Y251372D01*
X1276755Y237666D01*
X1272244Y222794D01*
X1270721Y207327D01*
X1272244Y191861D01*
X1276755Y176988D01*
X1284082Y163282D01*
X1293941Y151268D01*
X1305955Y141409D01*
X1319661Y134083D01*
X1334533Y129571D01*
X1350000Y128048D01*
X1365467Y129571D01*
X1380339Y134083D01*
X1394045Y141409D01*
X1406059Y151268D01*
X1415918Y163282D01*
X1423245Y176988D01*
X1427756Y191861D01*
X1429279Y207327D01*
X1427756Y222794D01*
X1423245Y237666D01*
X1415918Y251372D01*
X1406059Y263386D01*
X1394045Y273245D01*
X1380339Y280572D01*
X1365467Y285083D01*
X1350000Y286606D01*
D02*
G37*
G36*
X390754Y180522D02*
X384082Y172392D01*
X376755Y158685D01*
X372244Y143813D01*
X370721Y128346D01*
X372244Y112880D01*
X376755Y98008D01*
X384082Y84301D01*
X390754Y76171D01*
X442929Y128346D01*
X390754Y180522D01*
D02*
G37*
G36*
X509246D02*
X457071Y128346D01*
X509246Y76171D01*
X515918Y84301D01*
X523245Y98008D01*
X527756Y112880D01*
X529279Y128346D01*
X527756Y143813D01*
X523245Y158685D01*
X515918Y172392D01*
X509246Y180522D01*
D02*
G37*
G36*
X450000Y121275D02*
X397825Y69100D01*
X405955Y62428D01*
X419661Y55102D01*
X434533Y50590D01*
X450000Y49067D01*
X465467Y50590D01*
X480339Y55102D01*
X494045Y62428D01*
X502175Y69100D01*
X450000Y121275D01*
D02*
G37*
%LPD*%
G36*
X1200000Y1727755D02*
X1026458D01*
X1027202Y1731496D01*
X1026120Y1736934D01*
X1024493Y1739370D01*
X1026120Y1741806D01*
X1026207Y1742244D01*
X1005118D01*
Y1747244D01*
X1000118D01*
Y1761454D01*
X997244D01*
X991806Y1760372D01*
X987196Y1757292D01*
X985139Y1754213D01*
X960196D01*
Y1900000D01*
X1112441D01*
Y1873504D01*
X1187559D01*
Y1900000D01*
X1200000D01*
Y1727755D01*
D02*
G37*
G36*
X950000Y1754213D02*
X914861D01*
X912804Y1757292D01*
X908194Y1760372D01*
X902756Y1761454D01*
X899882D01*
Y1747244D01*
X894882D01*
Y1742244D01*
X873793D01*
X873880Y1741806D01*
X875507Y1739370D01*
X873880Y1736934D01*
X873793Y1736496D01*
X894882D01*
Y1726496D01*
X870348D01*
X869082Y1724924D01*
X810979D01*
X807467Y1724226D01*
X804490Y1722237D01*
X802108Y1719854D01*
X675000Y1720000D01*
Y1901000D01*
X950000D01*
Y1754213D01*
D02*
G37*
%LPC*%
G36*
X1187559Y1863504D02*
X1155000D01*
Y1832914D01*
X1187559D01*
Y1863504D01*
D02*
G37*
G36*
X1145000D02*
X1112441D01*
Y1832914D01*
X1145000D01*
Y1863504D01*
D02*
G37*
G36*
X1012992Y1761454D02*
X1010118D01*
Y1752244D01*
X1026207D01*
X1026120Y1752682D01*
X1023040Y1757292D01*
X1018430Y1760372D01*
X1012992Y1761454D01*
D02*
G37*
G36*
X813150Y1880472D02*
X755000D01*
Y1849882D01*
X813150D01*
Y1880472D01*
D02*
G37*
G36*
X745000D02*
X686850D01*
Y1849882D01*
X745000D01*
Y1880472D01*
D02*
G37*
G36*
X813150Y1839882D02*
X686850D01*
Y1809291D01*
X703297D01*
X704523Y1804291D01*
X699428Y1797651D01*
X695901Y1789137D01*
X694698Y1780000D01*
X695901Y1770863D01*
X699428Y1762349D01*
X701968Y1759039D01*
X726465Y1783535D01*
X730000Y1780000D01*
X733535Y1783535D01*
X758032Y1759039D01*
X760572Y1762349D01*
X764099Y1770863D01*
X765302Y1780000D01*
X764099Y1789137D01*
X760572Y1797651D01*
X755477Y1804291D01*
X756703Y1809291D01*
X813150D01*
Y1839882D01*
D02*
G37*
G36*
X889882Y1761454D02*
X887008D01*
X881570Y1760372D01*
X876960Y1757292D01*
X873880Y1752682D01*
X873793Y1752244D01*
X889882D01*
Y1761454D01*
D02*
G37*
G36*
X730000Y1772929D02*
X709039Y1751968D01*
X712349Y1749428D01*
X720863Y1745901D01*
X730000Y1744698D01*
X739137Y1745901D01*
X747651Y1749428D01*
X750961Y1751968D01*
X730000Y1772929D01*
D02*
G37*
%LPD*%
D10*
X1005118Y1652756D02*
D03*
Y1668504D02*
D03*
Y1684252D02*
D03*
Y1700000D02*
D03*
Y1715748D02*
D03*
Y1731496D02*
D03*
Y1747244D02*
D03*
X894882D02*
D03*
Y1731496D02*
D03*
Y1715748D02*
D03*
Y1700000D02*
D03*
Y1684252D02*
D03*
Y1668504D02*
D03*
Y1652756D02*
D03*
D11*
X950000Y1700000D02*
D03*
D12*
X1150000Y1868504D02*
D03*
Y1931496D02*
D03*
Y1618504D02*
D03*
Y1681496D02*
D03*
D13*
X750000Y1955118D02*
D03*
Y1844882D02*
D03*
D14*
X900000Y2767520D02*
D03*
Y2832480D02*
D03*
D15*
X1250000Y1684449D02*
D03*
Y1615551D02*
D03*
X1150000Y1215551D02*
D03*
Y1284449D02*
D03*
X1650000Y1215551D02*
D03*
Y1284449D02*
D03*
D16*
X391339Y1300000D02*
D03*
X308661D02*
D03*
Y1200000D02*
D03*
X391339D02*
D03*
X308661Y1100000D02*
D03*
X391339D02*
D03*
D17*
X515551Y1300000D02*
D03*
X584449D02*
D03*
X515551Y1200000D02*
D03*
X584449D02*
D03*
X515551Y1100000D02*
D03*
X584449D02*
D03*
D18*
X711978Y1811978D02*
X730000Y1793955D01*
X711978Y1811978D02*
Y1823291D01*
X807756Y1747244D02*
X894882D01*
X750000Y1805000D02*
X752500Y1802500D01*
X807756Y1747244D01*
X730000Y1780000D02*
Y1793955D01*
X425528Y1475528D02*
Y1480528D01*
X400000Y1450000D02*
X425528Y1475528D01*
Y1480528D02*
X750000Y1805000D01*
X607024Y1322575D02*
X654000Y1369551D01*
X584449Y1303937D02*
X603087Y1322575D01*
X584449Y1300000D02*
Y1303937D01*
X680000Y1548000D02*
X816252Y1684252D01*
X607024Y1122575D02*
X680000Y1195551D01*
X667000Y1553385D02*
X813615Y1700000D01*
X654000Y1369551D02*
Y1558769D01*
X667000Y1282551D02*
Y1553385D01*
X680000Y1195551D02*
Y1548000D01*
X654000Y1558769D02*
X810979Y1715748D01*
X603087Y1322575D02*
X607024D01*
Y1222575D02*
X667000Y1282551D01*
X1005118Y1731496D02*
X1012866D01*
X720092Y1831405D02*
X733568Y1844882D01*
X711978Y1823291D02*
X720092Y1831405D01*
X750000Y1821118D02*
X761882Y1833000D01*
X733568Y1844882D02*
X750000D01*
Y1821118D02*
Y1844882D01*
X761882Y1833000D01*
X1066650Y1797079D02*
X1076606D01*
X1373000Y1300000D02*
X1450000D01*
X1095000Y1578000D02*
X1373000Y1300000D01*
X1095000Y1578000D02*
Y1602000D01*
X1044244Y1652756D02*
X1095000Y1602000D01*
X1005118Y1652756D02*
X1044244D01*
X1005118Y1747244D02*
X1016815D01*
X813615Y1700000D02*
X894882D01*
X810979Y1715748D02*
X887071D01*
X816252Y1684252D02*
X894882D01*
X584449Y1100000D02*
Y1103937D01*
X603087Y1122575D01*
X607024D01*
X584449Y1203937D02*
X603087Y1222575D01*
X607024D01*
X584449Y1200000D02*
Y1203937D01*
X894882Y1731496D02*
Y1747244D01*
D19*
X1548000Y1262000D02*
Y1309000D01*
X1592000Y1218000D02*
X1647551D01*
X1548000Y1262000D02*
X1592000Y1218000D01*
X1647551D02*
X1650000Y1215551D01*
X1319000Y1538000D02*
X1548000Y1309000D01*
X1014803Y1717559D02*
X1208657D01*
X1250000Y1758902D02*
Y1758902D01*
X1208657Y1717559D02*
X1250000Y1758902D01*
X1006181Y1716811D02*
X1014055D01*
X1005118Y1715748D02*
X1006181Y1716811D01*
X1014055D02*
X1014803Y1717559D01*
X1005118Y1684252D02*
X1085748D01*
X1090000Y1680000D01*
X1152346Y2087654D02*
X1172346D01*
X1180000Y2080000D01*
X1010000Y2230000D02*
Y2730000D01*
X972480Y2767520D02*
X1010000Y2730000D01*
Y2230000D02*
X1152346Y2087654D01*
X855858Y1668504D02*
X894882D01*
X850000Y1477000D02*
X1017614Y1309386D01*
X850000Y1662646D02*
X855858Y1668504D01*
X850000Y1477000D02*
Y1662646D01*
X900000Y2767520D02*
X972480D01*
X1243000Y1542000D02*
X1250000Y1549000D01*
X1236000Y1542000D02*
X1243000D01*
X1250000Y1549000D02*
Y1615551D01*
X1234000Y1540000D02*
X1236000Y1542000D01*
X347000Y2536000D02*
X583000Y2300000D01*
X347000Y2536000D02*
Y3153000D01*
X583000Y2292000D02*
Y2300000D01*
X1048295Y1668504D02*
X1087799Y1629000D01*
X1005118Y1668504D02*
X1048295D01*
X1087799Y1629000D02*
X1139504D01*
X300000Y3200000D02*
X347000Y3153000D01*
X1050000Y1200000D02*
X1134449D01*
X1150000Y1215551D01*
X1139504Y1629000D02*
X1150000Y1618504D01*
X1040614Y1309386D02*
X1050000Y1300000D01*
X1017614Y1309386D02*
X1040614D01*
X308661Y1300000D02*
Y1441339D01*
X300000Y1450000D02*
X308661Y1441339D01*
Y1200000D02*
Y1300000D01*
Y1100000D02*
Y1200000D01*
X391339Y1100000D02*
X515551D01*
X391339Y1200000D02*
X515551D01*
X391339Y1300000D02*
X515551D01*
D20*
X286000Y2043000D02*
X484118Y1844882D01*
X750000D01*
X1341752Y1924752D02*
X1398000Y1981000D01*
X1285504Y1868504D02*
X1341752Y1924752D01*
X1456504Y1810000D02*
X1480000D01*
X1341752Y1924752D02*
X1456504Y1810000D01*
X1150000Y1868504D02*
X1285504D01*
X1148032D02*
X1150000D01*
X1398000Y1981000D02*
Y2741000D01*
X1600000Y2943000D02*
Y3200000D01*
X1398000Y2741000D02*
X1600000Y2943000D01*
X286000Y2043000D02*
Y2982000D01*
X129289Y3066000D02*
X202000D01*
X286000Y2982000D01*
X100000Y3095289D02*
Y3200000D01*
Y3095289D02*
X129289Y3066000D01*
D21*
X1450000Y1300000D02*
D03*
X1050000D02*
D03*
X300000Y1450000D02*
D03*
D22*
X1450000Y1200000D02*
D03*
X1050000D02*
D03*
D23*
X100000Y3200000D02*
D03*
X200000D02*
D03*
X300000D02*
D03*
X1600000D02*
D03*
X1700000D02*
D03*
D24*
X400000Y1450000D02*
D03*
D25*
X1350000Y3050634D02*
D03*
Y207327D02*
D03*
X450000Y128346D02*
D03*
Y2971653D02*
D03*
D26*
X730000Y1780000D02*
D03*
X1250000Y1758902D02*
D03*
X1090000Y1680000D02*
D03*
X1180000Y2080000D02*
D03*
X1480000Y1810000D02*
D03*
X1234000Y1540000D02*
D03*
X1319000Y1538000D02*
D03*
X583000Y2292000D02*
D03*
%TF.MD5,c04116a5f7989a2d846654ef2f725e30*%
M02*
